<svg id="Layer_1" data-name="Layer 1" xmlns="http://www.w3.org/2000/svg" viewBox="0 0 261.02 253.99"><defs><style>.cls-1,.cls-7{fill:#fff;}.cls-2{font-size:19.96px;}.cls-10,.cls-11,.cls-12,.cls-2,.cls-3,.cls-4,.cls-5,.cls-6,.cls-8,.cls-9{fill:blue;}.cls-10,.cls-11,.cls-12,.cls-2,.cls-3,.cls-4,.cls-5,.cls-6,.cls-7,.cls-8,.cls-9{font-family:BerlinSansFB-Reg, Berlin Sans FB;}.cls-3{font-size:19.84px;}.cls-4{font-size:19.78px;}.cls-5{font-size:21.35px;}.cls-6{font-size:19.91px;}.cls-7{font-size:23.39px;}.cls-8{font-size:20.64px;}.cls-9{font-size:20.45px;}.cls-10{font-size:20.37px;}.cls-11{font-size:22.07px;}.cls-12{font-size:20.56px;}</style></defs><path class="cls-1" d="M55.86,51.6l-1.77-2.09L67.88,37.86,69.64,40Z" transform="translate(-7.01 -8.83)"/><path class="cls-1" d="M97.05,33.05a9.09,9.09,0,0,1-4.18.34,6.86,6.86,0,0,1-3.31-1.64,7,7,0,0,1-2-3.25l-2.94-9.66,4.84-1.47,2.84,9.34a3.61,3.61,0,0,0,1.87,2.43,4.74,4.74,0,0,0,3.31,0,4.83,4.83,0,0,0,3.08-2.29,5.09,5.09,0,0,0,.16-3.89l-2.51-8.24,4.84-1.46L108,29.45l-4.76,1.44-.65-2.12-.69.21a5.09,5.09,0,0,1-1.24,2.12A7.8,7.8,0,0,1,97.05,33.05Z" transform="translate(-7.01 -8.83)"/><path class="cls-1" d="M140.65,26.39A8.83,8.83,0,0,1,136.81,25a6.41,6.41,0,0,1-2.76-6.31l1.22-9.53,4.87.63L139,19a3.39,3.39,0,0,0,.7,2.84,4.68,4.68,0,0,0,2.93,1.29,4.74,4.74,0,0,0,3.64-.77,4.79,4.79,0,0,0,1.68-3.32L149,11l4.86.63-2,16L147,27l.26-2.1-.69-.09a5,5,0,0,1-1.94,1.36A7.78,7.78,0,0,1,140.65,26.39Z" transform="translate(-7.01 -8.83)"/><path class="cls-1" d="M182.84,33.55,184,31l2,.91,4.64-10.22-2-.92,1.16-2.53,6.29,2.86a7,7,0,0,1,4,3.7,6.73,6.73,0,0,1-.49,5.36l-1.31,2.89A6.84,6.84,0,0,1,194.52,37a7.05,7.05,0,0,1-5.38-.58Zm6.09-.4,1.44.66a3.56,3.56,0,0,0,3,.24,4.16,4.16,0,0,0,2-2.21l1.39-3.05a4.09,4.09,0,0,0,.36-2.95,3.54,3.54,0,0,0-2.14-2.08l-1.44-.66Z" transform="translate(-7.01 -8.83)"/><path class="cls-1" d="M201.29,43.53A6.38,6.38,0,0,1,199,41.25a5.51,5.51,0,0,1-.68-2.93,6.75,6.75,0,0,1,1.08-3.17l.15-.24a6.62,6.62,0,0,1,2.33-2.37,5.16,5.16,0,0,1,2.9-.72,6.16,6.16,0,0,1,3.06,1A5.76,5.76,0,0,1,210,35.07a5.32,5.32,0,0,1,.58,2.9,6.69,6.69,0,0,1-1.06,3.09l-.54.88-7.38-4.54a2.69,2.69,0,0,0-.27,2.17,3.07,3.07,0,0,0,1.4,1.76,2.7,2.7,0,0,0,1.88.52,4,4,0,0,0,1.42-.57l1.43,2.4a7.8,7.8,0,0,1-1.56.65,5.35,5.35,0,0,1-2.08.18A6.23,6.23,0,0,1,201.29,43.53Zm1.55-8,4.74,2.92a2.4,2.4,0,0,0,.15-1.85A2.78,2.78,0,0,0,206.44,35a2.91,2.91,0,0,0-2-.49A2.68,2.68,0,0,0,202.84,35.49Z" transform="translate(-7.01 -8.83)"/><path class="cls-1" d="M211.87,51.17A6.65,6.65,0,0,1,209.5,48a4.1,4.1,0,0,1,.37-3.37l2.63,1.16a3.06,3.06,0,0,0-.39,1.37,2.35,2.35,0,0,0,.35,1.16,4,4,0,0,0,.89,1,2.73,2.73,0,0,0,1.45.69,1.18,1.18,0,0,0,1-.43.91.91,0,0,0,.14-.95,4.44,4.44,0,0,0-.89-1.35l-.46-.51a12.76,12.76,0,0,1-1.38-1.92,4.17,4.17,0,0,1-.58-2,2.89,2.89,0,0,1,.7-1.89,3.17,3.17,0,0,1,2.7-1.33A5.56,5.56,0,0,1,219.28,41a5.79,5.79,0,0,1,2.05,2.75,4,4,0,0,1-.08,2.89l-2.74-1.06a2,2,0,0,0,.18-1.5,2.58,2.58,0,0,0-.9-1.2,2.32,2.32,0,0,0-1.23-.57.9.9,0,0,0-.86.36.93.93,0,0,0-.16,1,4.53,4.53,0,0,0,.77,1.13l.45.51a12.76,12.76,0,0,1,1.5,2,3.82,3.82,0,0,1,.66,2,2.81,2.81,0,0,1-.71,1.95,3.4,3.4,0,0,1-2.87,1.43A5.92,5.92,0,0,1,211.87,51.17Z" transform="translate(-7.01 -8.83)"/><path class="cls-1" d="M218.12,56.19l8.21-8.61,2.19,2.09-8.22,8.61Zm10.27-8.57a2,2,0,0,1-.64-1.34,1.8,1.8,0,0,1,.56-1.39,1.83,1.83,0,0,1,1.36-.63,2,2,0,0,1,1.37.58,1.91,1.91,0,0,1,.64,1.34,1.8,1.8,0,0,1-.56,1.39,1.83,1.83,0,0,1-1.36.63A1.91,1.91,0,0,1,228.39,47.62Z" transform="translate(-7.01 -8.83)"/><path class="cls-1" d="M115.39,27.44l-3.63-12.6,3.23-.79,3.63,12.6ZM113,13a2.25,2.25,0,0,1-1.65-.2,2.05,2.05,0,0,1-1-1.32,2,2,0,0,1,.16-1.62,2.14,2.14,0,0,1,1.33-.93,2.23,2.23,0,0,1,1.65.2,2.1,2.1,0,0,1,1,1.33,1.9,1.9,0,0,1-.17,1.61A2,2,0,0,1,113,13Z" transform="translate(-7.01 -8.83)"/><path class="cls-1" d="M228.17,57.8l.29-.25a6.36,6.36,0,0,1,2.91-1.5,5.09,5.09,0,0,1,2.83.18,5.29,5.29,0,0,1,2.31,1.59,4.32,4.32,0,0,1,1.16,2.26,4.21,4.21,0,0,1-.12,1.71l.28.33,1.1-.94,1.93,2.27-10.67,9.09a2.64,2.64,0,0,1-1.95.71,2.57,2.57,0,0,1-1.81-1l-5.17-6.07,2-1.71,4.48,5.26a.62.62,0,0,0,1,0l2.36-2-.28-.33a3.61,3.61,0,0,1-1,0,3.48,3.48,0,0,1-1.24-.45,5.34,5.34,0,0,1-1.39-1.22,5.4,5.4,0,0,1-1.22-2.52,5.28,5.28,0,0,1,.27-2.82A6.54,6.54,0,0,1,228.17,57.8Zm1.55,6.94a3.16,3.16,0,0,0,4.7.29l.18-.16a3.14,3.14,0,0,0,.46-4.68A3.26,3.26,0,0,0,232.87,59a3.2,3.2,0,0,0-2.5.9l-.19.16a3.29,3.29,0,0,0-1.29,2.33A3.25,3.25,0,0,0,229.72,64.74Z" transform="translate(-7.01 -8.83)"/><path class="cls-1" d="M233.44,73.75l10-6.49,1.62,2.5-1.31.85L244,71a3,3,0,0,1,1.57.26,4.16,4.16,0,0,1,1.8,1.7,4.58,4.58,0,0,1,.78,2.39,4.27,4.27,0,0,1-.58,2.32,5.69,5.69,0,0,1-1.86,1.9l-6,3.87-1.65-2.54,5.76-3.74a2.73,2.73,0,0,0,1.32-1.66,2.47,2.47,0,0,0-.46-1.94,2.65,2.65,0,0,0-2-1.3,3.94,3.94,0,0,0-2.57.76l-5.07,3.3Z" transform="translate(-7.01 -8.83)"/><path class="cls-1" d="M243,91a6.52,6.52,0,0,1-.72-3.15,5.54,5.54,0,0,1,1-2.84,6.81,6.81,0,0,1,2.6-2.1l.26-.13a6.83,6.83,0,0,1,3.24-.75,5.15,5.15,0,0,1,2.83.94,6.1,6.1,0,0,1,2.06,2.47,5.67,5.67,0,0,1,.63,3.08,5.21,5.21,0,0,1-1.06,2.76,6.69,6.69,0,0,1-2.55,2.05l-.92.45L246.53,86a2.68,2.68,0,0,0-1.39,1.69,3,3,0,0,0,.24,2.24,2.69,2.69,0,0,0,1.32,1.44,4,4,0,0,0,1.5.28l-.08,2.79a7.25,7.25,0,0,1-1.66-.29,5.18,5.18,0,0,1-1.86-1A6.08,6.08,0,0,1,243,91Zm5.6-6L251,90a2.33,2.33,0,0,0,1.12-1.48,2.74,2.74,0,0,0-.27-2,2.9,2.9,0,0,0-1.41-1.47A2.69,2.69,0,0,0,248.57,85Z" transform="translate(-7.01 -8.83)"/><path class="cls-1" d="M246.49,98.37l11.19-4.06,1,2.8-1.27.45.15.41a1.91,1.91,0,0,1,1.29.45,3.11,3.11,0,0,1,.81,1.24l.49,1.36-2.53.91-.51-1.4A2.87,2.87,0,0,0,255.9,99a2.25,2.25,0,0,0-2-.06l-6.37,2.31Z" transform="translate(-7.01 -8.83)"/><path class="cls-1" d="M243.92,114.26l22.51,3.1.53,3-22.5-3.1Z" transform="translate(-7.01 -8.83)"/><path class="cls-1" d="M245.65,124.36l22.12,5.2.26,3-22.12-5.21Z" transform="translate(-7.01 -8.83)"/><path class="cls-1" d="M220.23,222.77l1.8,2.07L208.4,236.67l-1.79-2.06Z" transform="translate(-7.01 -8.83)"/><path class="cls-1" d="M31.36,162.62l-22.55-2.8-.58-3,22.55,2.8Z" transform="translate(-7.01 -8.83)"/><path class="cls-1" d="M29.49,152.55,7.3,147.64l-.29-3,22.18,4.91Z" transform="translate(-7.01 -8.83)"/><text class="cls-2" transform="matrix(-0.22, 0.99, -0.98, -0.2, 242.22, 131.47)">A</text><text class="cls-3" transform="matrix(-0.47, 0.91, -0.9, -0.43, 230.77, 172.94)">A</text><text class="cls-4" transform="matrix(-0.56, 0.87, -0.86, -0.51, 224.55, 185.93)">M</text><text class="cls-5" transform="matrix(-0.26, 1, -0.97, -0.24, 239.04, 145.54)">R</text><text class="cls-6" transform="matrix(-0.34, 0.96, -0.95, -0.31, 234.77, 160.18)">K</text><text class="cls-7" transform="matrix(1.07, 0.17, -0.16, 0.99, 151.35, 20.13)">X</text><path class="cls-1" d="M184.58,233.85a9,9,0,0,1,4.14-.69,6.72,6.72,0,0,1,3.43,1.35,7,7,0,0,1,2.27,3.06l3.75,9.38-4.7,1.88-3.63-9.07a3.63,3.63,0,0,0-2.07-2.26,4.76,4.76,0,0,0-3.3.29,4.88,4.88,0,0,0-2.87,2.54,5.08,5.08,0,0,0,.18,3.9l3.19,8-4.69,1.87L174,238.37l4.62-1.84.82,2.06.67-.27a5,5,0,0,1,1.06-2.22A7.72,7.72,0,0,1,184.58,233.85Z" transform="translate(-7.01 -8.83)"/><path class="cls-1" d="M141.71,244.21a8.85,8.85,0,0,1,3.93,1,6.58,6.58,0,0,1,2.51,2.51,6.67,6.67,0,0,1,.79,3.55l-.41,9.6-4.9-.22.39-9.27a3.4,3.4,0,0,0-.94-2.77,4.67,4.67,0,0,0-3-1,4.74,4.74,0,0,0-3.56,1.08,4.8,4.8,0,0,0-1.39,3.45l-.34,8.17-4.91-.21.68-16.09,4.82.21-.08,2.11.7,0a4.82,4.82,0,0,1,1.81-1.51A7.67,7.67,0,0,1,141.71,244.21Z" transform="translate(-7.01 -8.83)"/><path class="cls-1" d="M99.05,240.67l-.93,2.63L96,242.56l-3.76,10.58,2.08.74-.93,2.62-6.51-2.31a7,7,0,0,1-4.26-3.35,6.68,6.68,0,0,1,0-5.38l1.06-3a6.79,6.79,0,0,1,3.38-4.22,7.1,7.1,0,0,1,5.41.11Zm-6,.92-1.49-.53a3.53,3.53,0,0,0-3,0,4.14,4.14,0,0,0-1.79,2.37l-1.12,3.17a4.08,4.08,0,0,0-.11,3,3.55,3.55,0,0,0,2.31,1.89l1.49.53Z" transform="translate(-7.01 -8.83)"/><path class="cls-1" d="M79.82,232.31a6.42,6.42,0,0,1,2.47,2.07,5.58,5.58,0,0,1,.93,2.86,6.78,6.78,0,0,1-.8,3.25l-.13.26a6.66,6.66,0,0,1-2.13,2.56,5.21,5.21,0,0,1-2.82,1,6.23,6.23,0,0,1-3.13-.72,5.71,5.71,0,0,1-2.37-2.08,5.27,5.27,0,0,1-.83-2.84,6.71,6.71,0,0,1,.8-3.17l.46-.92,7.74,3.9a2.75,2.75,0,0,0,.08-2.19,3.08,3.08,0,0,0-1.54-1.64,2.7,2.7,0,0,0-1.92-.35,4.09,4.09,0,0,0-1.37.68l-1.62-2.27a7.55,7.55,0,0,1,1.49-.78,5.27,5.27,0,0,1,2.06-.35A6.15,6.15,0,0,1,79.82,232.31ZM79,240.45l-5-2.51a2.4,2.4,0,0,0,0,1.86,2.78,2.78,0,0,0,1.42,1.41,2.86,2.86,0,0,0,2,.32A2.71,2.71,0,0,0,79,240.45Z" transform="translate(-7.01 -8.83)"/><path class="cls-1" d="M68.63,225.6a6.55,6.55,0,0,1,2.63,2.94,4.1,4.1,0,0,1-.08,3.39L68.46,231a2.91,2.91,0,0,0,.27-1.4,2.34,2.34,0,0,0-.44-1.12,4.18,4.18,0,0,0-1-.88,2.8,2.8,0,0,0-1.5-.56,1.13,1.13,0,0,0-.93.51.88.88,0,0,0-.06,1,4.2,4.2,0,0,0,1,1.27l.49.47a12,12,0,0,1,1.55,1.8,4.29,4.29,0,0,1,.74,1.89,2.94,2.94,0,0,1-.54,1.95,3.16,3.16,0,0,1-2.57,1.55,5.59,5.59,0,0,1-3.38-1.08,5.83,5.83,0,0,1-2.27-2.56,4,4,0,0,1-.16-2.89l2.82.82a1.93,1.93,0,0,0-.06,1.52,2.55,2.55,0,0,0,1,1.11,2.35,2.35,0,0,0,1.27.47,1,1,0,0,0,.9-1.42,4.29,4.29,0,0,0-.85-1l-.5-.47A14,14,0,0,1,62.59,230a3.93,3.93,0,0,1-.82-1.89,2.8,2.8,0,0,1,.54-2,3.43,3.43,0,0,1,2.74-1.67A5.86,5.86,0,0,1,68.63,225.6Z" transform="translate(-7.01 -8.83)"/><path class="cls-1" d="M62,221.12l-7.45,9.29-2.36-1.9,7.45-9.28Zm-9.51,9.42a2,2,0,0,1,.76,1.29A2,2,0,0,1,51.49,234a2,2,0,0,1-1.42-.46,1.94,1.94,0,0,1-.76-1.28,2,2,0,0,1,1.75-2.18A1.93,1.93,0,0,1,52.47,230.54Z" transform="translate(-7.01 -8.83)"/><path class="cls-1" d="M166.79,241l4.69,12.25-3.15,1.07-4.69-12.25Zm3.66,14.22a2.22,2.22,0,0,1,1.66.05,2.06,2.06,0,0,1,1.12,1.24,1.94,1.94,0,0,1,0,1.62,2.13,2.13,0,0,1-1.25,1,2.18,2.18,0,0,1-1.65-.06,2.12,2.12,0,0,1-1.13-1.23,1.95,1.95,0,0,1,1.27-2.66Z" transform="translate(-7.01 -8.83)"/><path class="cls-1" d="M51.82,220.38l-.27.27a6.38,6.38,0,0,1-2.77,1.75,5.16,5.16,0,0,1-2.83.07,5.41,5.41,0,0,1-2.44-1.4,4.38,4.38,0,0,1-1.35-2.15,4.14,4.14,0,0,1,0-1.71l-.3-.31-1,1-2.11-2.09,9.86-10a2.6,2.6,0,0,1,1.88-.87,2.47,2.47,0,0,1,1.88.82l5.67,5.6-1.86,1.88-4.91-4.86a.61.61,0,0,0-1,0l-2.17,2.2.3.3a4.11,4.11,0,0,1,1-.09,3.58,3.58,0,0,1,1.27.35,5.36,5.36,0,0,1,2.89,6.33A6.56,6.56,0,0,1,51.82,220.38Zm-2.14-6.78a3.15,3.15,0,0,0-4.7.11l-.16.17a3.23,3.23,0,0,0-1.09,2.44,3.15,3.15,0,0,0,1,2.27,3.15,3.15,0,0,0,4.7-.11l.16-.17a3.27,3.27,0,0,0,1.09-2.44A3.24,3.24,0,0,0,49.68,213.6Z" transform="translate(-7.01 -8.83)"/><path class="cls-1" d="M45.21,204.94l-9.39,7.32L34,209.91l1.23-1-.26-.34a3.1,3.1,0,0,1-1.59-.13,4,4,0,0,1-1.93-1.54,4.44,4.44,0,0,1-1-2.31,4.12,4.12,0,0,1,.38-2.36,5.39,5.39,0,0,1,1.69-2.05l5.6-4.37L40,198.24l-5.42,4.22a2.76,2.76,0,0,0-1.17,1.77,2.49,2.49,0,0,0,.62,1.89,2.63,2.63,0,0,0,2.06,1.12,3.86,3.86,0,0,0,2.5-1l4.77-3.72Z" transform="translate(-7.01 -8.83)"/><path class="cls-1" d="M34.25,188.61a6.4,6.4,0,0,1,1,3.08,5.55,5.55,0,0,1-.75,2.91,6.79,6.79,0,0,1-2.41,2.31l-.25.15a6.76,6.76,0,0,1-3.16,1,5.16,5.16,0,0,1-2.91-.7,6.1,6.1,0,0,1-2.26-2.28,5.72,5.72,0,0,1-.89-3,5.32,5.32,0,0,1,.82-2.84A6.71,6.71,0,0,1,25.79,187l.88-.53,4.46,7.43a2.72,2.72,0,0,0,1.24-1.8,3.07,3.07,0,0,0-.43-2.21,2.69,2.69,0,0,0-1.44-1.32,3.79,3.79,0,0,0-1.52-.15l-.16-2.79a7.61,7.61,0,0,1,1.69.14,5.48,5.48,0,0,1,1.93.8A6.18,6.18,0,0,1,34.25,188.61ZM29.18,195l-2.86-4.77a2.34,2.34,0,0,0-1,1.57,2.78,2.78,0,0,0,.44,1.95,2.87,2.87,0,0,0,1.53,1.34A2.67,2.67,0,0,0,29.18,195Z" transform="translate(-7.01 -8.83)"/><path class="cls-1" d="M30.11,181.53l-10.81,5-1.25-2.7,1.22-.56-.18-.39a1.91,1.91,0,0,1-1.32-.34,3.08,3.08,0,0,1-.91-1.17l-.6-1.31,2.44-1.12.62,1.35a2.85,2.85,0,0,0,1.36,1.45,2.22,2.22,0,0,0,2-.11l6.15-2.84Z" transform="translate(-7.01 -8.83)"/><text class="cls-7" transform="matrix(-1.08, -0.08, 0.08, -1, 116.84, 234.34)">X</text><text class="cls-8" transform="matrix(0.19, -0.98, 0.99, 0.17, 18.2, 126.75)">A</text><text class="cls-9" transform="matrix(0.45, -0.92, 0.92, 0.4, 29, 84)">A</text><text class="cls-10" transform="matrix(0.54, -0.88, 0.88, 0.48, 35.11, 70.52)">M</text><text class="cls-11" transform="matrix(0.24, -1, 0.98, 0.2, 21.14, 112.26)">R</text><text class="cls-12" transform="matrix(0.32, -0.96, 0.96, 0.28, 25.19, 97.16)">K</text></svg>